<?xml version="1.0" encoding="UTF-8" standalone="no"?>
<!-- Created with Inkscape (http://www.inkscape.org/) -->

<svg
   xmlns:dc="http://purl.org/dc/elements/1.1/"
   xmlns:cc="http://creativecommons.org/ns#"
   xmlns:rdf="http://www.w3.org/1999/02/22-rdf-syntax-ns#"
   xmlns:svg="http://www.w3.org/2000/svg"
   xmlns="http://www.w3.org/2000/svg"
   xmlns:sodipodi="http://sodipodi.sourceforge.net/DTD/sodipodi-0.dtd"
   xmlns:inkscape="http://www.inkscape.org/namespaces/inkscape"
   version="1.1"
   id="svg10"
   width="97"
   height="132"
   viewBox="0 0 97 132"
   sodipodi:docname="25.svg"
   inkscape:version="0.92.4 (5da689c313, 2019-01-14)">
  <metadata
     id="metadata16">
    <rdf:RDF>
      <cc:Work
         rdf:about="">
        <dc:format>image/svg+xml</dc:format>
        <dc:type
           rdf:resource="http://purl.org/dc/dcmitype/StillImage" />
        <dc:title></dc:title>
      </cc:Work>
    </rdf:RDF>
  </metadata>
  <defs
     id="defs14" />
  <sodipodi:namedview
     pagecolor="#ffffff"
     bordercolor="#666666"
     borderopacity="1"
     objecttolerance="10"
     gridtolerance="10"
     guidetolerance="10"
     inkscape:pageopacity="0"
     inkscape:pageshadow="2"
     inkscape:window-width="1360"
     inkscape:window-height="715"
     id="namedview12"
     showgrid="false"
     inkscape:zoom="2.9248508"
     inkscape:cx="61.000982"
     inkscape:cy="68.114952"
     inkscape:window-x="-8"
     inkscape:window-y="-8"
     inkscape:window-maximized="1"
     inkscape:current-layer="svg10" />
  <path
     style="fill:#000000"
     d="M 29.569554,124.86835 C 17.800567,121.74205 11.711238,113.48884 11.085726,99.816204 10.743669,92.339392 10.9389,91.393406 14.070993,85.351247 19.052002,75.74232 28.721667,70.289525 30.629714,76.013664 c 0.193338,0.580015 -1.898375,2.670965 -4.648253,4.646556 -2.749877,1.97559 -5.731519,5.007015 -6.625871,6.736501 -1.883147,3.641605 -3.014555,12.567303 -2.070036,16.330559 l 0.649777,2.58892 h 14.576656 c 19.591496,0 22.495607,-1.68493 21.081088,-12.230955 -0.30324,-2.260822 -1.957561,-6.105252 -3.676736,-8.544265 -4.666272,-6.620093 -3.950177,-7.794202 4.514502,-7.401978 3.831512,0.177538 12.141386,1.077538 18.466386,2 l 11.5,1.677202 v 19.499996 19.5 h -8.5 -8.5 L 67.12467,103.19338 66.852114,85.570568 63.12467,84.954392 c -6.292365,-1.040179 -6.254387,-1.073541 -4.53204,3.981269 1.842956,5.408779 1.350245,18.588569 -0.840229,22.475699 -6.579378,11.67552 -16.699037,16.50754 -28.182847,13.45699 z m 13.805159,-7.10849 c 1.803859,-0.85599 4.208394,-2.54349 5.34341,-3.75 l 2.063665,-2.19366 -15.050884,0.30125 -15.050884,0.30126 1.858603,2.08537 c 4.191682,4.70311 14.418506,6.30112 20.83609,3.25578 z m 35.522514,-16.32703 c 0,-13.552236 -0.05366,-13.897745 -2.25,-14.48634 -1.2375,-0.331637 -2.5875,-0.609121 -3,-0.616631 -0.4125,-0.0075 -0.75,6.511345 -0.75,14.486341 v 14.5 h 3 3 z M 11.360358,62.08072 C 11.086545,61.367174 10.982826,49.090753 11.129871,34.799784 11.462745,2.4486397 10.765631,3.0065056 26.729468,22.316204 c 6.138443,7.425 13.676907,15.4125 16.752143,17.75 l 5.591338,4.25 h 13.855435 c 16.472283,0 16.968843,-0.310642 16.968843,-10.615517 0,-7.148377 -0.285604,-7.384483 -8.932564,-7.384483 -10.198471,0 -14.067436,-2.738791 -14.067436,-9.958159 0,-3.903484 4.944742,-8.0418406 9.608844,-8.0418406 7.12177,0 14.000919,4.4095536 17.488474,11.2101616 2.355169,4.592496 2.624572,19.073319 0.48698,26.175995 C 81.473133,55.698489 73.942188,61.571365 64.280269,61.455958 56.167576,61.359058 50.711343,58.010176 39.562608,46.284966 L 29.897227,36.11981 v 10.534838 10.534839 l 3.25,0.313359 c 2.716438,0.261913 3.25,0.723791 3.25,2.813358 v 2.5 L 24.127713,63.097139 C 14.789682,63.310953 11.739253,63.068109 11.360358,62.08072 Z M 23.897227,42.801519 V 28.286834 l -3.472942,-3.735315 -3.472943,-3.735315 -0.02706,18.25 -0.02706,18.25 h 3.5 3.5 z m 48,10.260947 3.5,-2.246262 -5.75,-0.299904 c -3.1625,-0.164947 -8.3375,-0.164947 -11.5,0 l -5.75,0.299904 4,2.205804 c 5.25053,2.89541 11.028075,2.91049 15.5,0.04046 z m 3.86278,-34.296872 c 0.199529,-0.187889 -1.150471,-1.275781 -3,-2.417538 -4.372619,-2.699318 -9.242855,-2.374097 -9.672867,0.645928 -0.246582,1.731777 0.26541,2.249365 2.5,2.527324 2.865982,0.356499 9.516398,-0.137543 10.172867,-0.755714 z"
     id="path20"
     inkscape:connector-curvature="0" />
</svg>
