<?xml version="1.0" encoding="UTF-8" standalone="no"?>
<!-- Created with Inkscape (http://www.inkscape.org/) -->

<svg
   xmlns:dc="http://purl.org/dc/elements/1.1/"
   xmlns:cc="http://creativecommons.org/ns#"
   xmlns:rdf="http://www.w3.org/1999/02/22-rdf-syntax-ns#"
   xmlns:svg="http://www.w3.org/2000/svg"
   xmlns="http://www.w3.org/2000/svg"
   xmlns:sodipodi="http://sodipodi.sourceforge.net/DTD/sodipodi-0.dtd"
   xmlns:inkscape="http://www.inkscape.org/namespaces/inkscape"
   version="1.1"
   id="svg3749"
   width="135"
   height="140"
   viewBox="0 0 135 140"
   sodipodi:docname="burguer.svg"
   inkscape:version="0.92.4 (5da689c313, 2019-01-14)">
  <metadata
     id="metadata3755">
    <rdf:RDF>
      <cc:Work
         rdf:about="">
        <dc:format>image/svg+xml</dc:format>
        <dc:type
           rdf:resource="http://purl.org/dc/dcmitype/StillImage" />
      </cc:Work>
    </rdf:RDF>
  </metadata>
  <defs
     id="defs3753" />
  <sodipodi:namedview
     pagecolor="#ffffff"
     bordercolor="#666666"
     borderopacity="1"
     objecttolerance="10"
     gridtolerance="10"
     guidetolerance="10"
     inkscape:pageopacity="0"
     inkscape:pageshadow="2"
     inkscape:window-width="1360"
     inkscape:window-height="715"
     id="namedview3751"
     showgrid="false"
     inkscape:zoom="3.9"
     inkscape:cx="57.146042"
     inkscape:cy="36.285172"
     inkscape:window-x="-8"
     inkscape:window-y="-8"
     inkscape:window-maximized="1"
     inkscape:current-layer="svg3749" />
  <path
     style="fill:#000000"
     d="M 23.749978,128.91989 C 20.745575,127.16999 19,122.40354 19,115.94966 c 0,-5.6604 2.160435,-9.65334 4.585897,-11.37658 L 25.864103,103.25641 70.99563,103 c 43.96154,-0.24976 45.27421,0.0559 48.075,2.05029 5.77066,4.10907 3.18094,21.7988 1.92761,22.85696 0,0 -1.75949,1.14742 -3.50142,1.32674 -15.15315,1.55993 -46.262597,0.73561 -46.262597,0.73561 -29.195487,0.46423 -46.366937,-0.39893 -47.484245,-1.0497 z m 92.421282,-5.57488 c 2.06158,-1.8657 2.52855,-9.16888 0.79356,-12.41075 C 115.9652,109.06646 114.40268,109 71.487869,109 H 27.046106 l -1.458877,2.25 c -1.952851,3.01185 -1.308811,10.7492 1.037551,12.4649 1.367044,0.99961 11.305795,1.2851 44.737609,1.2851 38.590141,0 43.166921,-0.16904 44.808871,-1.65499 z M 23.151607,97.11486 C 22.409991,96.644877 21.966153,95.414268 22.165302,94.380173 22.436798,92.970408 23.396217,92.5 26,92.5 c 2.603783,0 3.563202,0.470408 3.834698,1.880173 0.382543,1.986383 -1.329906,3.589201 -3.834698,3.589201 -0.825,0 -2.106777,-0.384531 -2.848393,-0.854514 z M 33.361626,96.5 C 32.237553,93.570712 33.802871,92 37.84617,92 c 4.812783,0 6.963794,2.047179 4.616919,4.394054 -2.061293,2.061293 -8.323155,2.134184 -9.101463,0.105946 z m 13.789981,0.61486 c -0.741616,-0.469983 -1.187569,-1.700592 -0.991006,-2.734687 0.484955,-2.551288 9.530377,-3.349045 10.461474,-0.922646 1.351358,3.521583 -5.505951,6.169758 -9.470468,3.657333 z m 12.953585,-0.488112 c -0.626834,-0.755288 -0.850217,-2.127628 -0.496406,-3.049643 0.965967,-2.51727 9.730245,-1.829304 10.230613,0.803068 0.196563,1.034095 -0.24939,2.264704 -0.991006,2.734687 -2.103609,1.333116 -7.48086,1.032917 -8.743201,-0.488112 z m 14.046415,0.488112 c -0.741616,-0.469983 -1.187569,-1.700592 -0.991006,-2.734687 0.484955,-2.551288 9.530377,-3.349045 10.461474,-0.922646 1.351358,3.521583 -5.505951,6.169758 -9.470468,3.657333 z m 12.953585,-0.488112 c -0.626834,-0.755288 -0.850217,-2.127628 -0.496406,-3.049643 0.965967,-2.51727 9.730245,-1.829304 10.230613,0.803068 0.196563,1.034095 -0.24939,2.264704 -0.991006,2.734687 -2.103609,1.333116 -7.48086,1.032917 -8.743201,-0.488112 z M 100.36163,96.5 c -1.172663,-3.0559 0.43189,-4.5 5,-4.5 5.0283,0 7.10659,2.453242 4.00167,4.723619 -2.43881,1.783302 -8.2873,1.638014 -9.00167,-0.223619 z m 13.74356,0.126748 C 112.348,94.509458 113.86764,92 116.90699,92 c 3.60001,0 5.29465,1.754712 4.01102,4.153196 -1.15904,2.165696 -5.1767,2.444959 -6.81282,0.473552 z M 22.365318,84.509621 c -0.318612,-0.830292 -0.318612,-2.18895 0,-3.019242 0.507424,-1.322325 6.569012,-1.47741 48.856989,-1.25 L 119.5,80.5 v 2.5 2.5 l -48.277693,0.259621 c -42.287977,0.22741 -48.349565,0.07233 -48.856989,-1.25 z M 23.25,74.337719 C 22.5625,74.060307 22,72.95326 22,71.877616 c 0,-1.436974 1.874495,-2.854046 7.067033,-5.342502 l 7.067032,-3.386785 6.07264,2.871904 6.072639,2.871905 4.827084,-2.446069 c 5.919388,-2.999581 8.149655,-3.006304 13.817833,-0.04166 l 4.424261,2.314037 6.017289,-2.731459 6.017289,-2.731458 6.112532,2.742507 6.112532,2.742508 4.445916,-2.325087 c 5.85514,-3.062069 7.87282,-2.985952 14.90159,0.562161 6.82951,3.447524 7.85417,4.641113 5.77186,6.723423 -1.3455,1.345496 -2.17705,1.209376 -7.66937,-1.255433 l -6.16025,-2.764555 -5.70474,2.726615 -5.704734,2.726614 -5.494218,-2.557374 c -6.79297,-3.1619 -6.906728,-3.161677 -13.197081,0.02589 l -5.136375,2.602798 -5.779336,-2.762269 -5.779336,-2.76227 -5.9023,2.648795 -5.902301,2.648795 -6.197116,-2.673918 -6.197116,-2.673918 -5.473782,2.684595 c -3.010581,1.476527 -5.576314,2.649068 -5.701629,2.605647 C 24.602531,74.877632 23.9375,74.615132 23.25,74.337719 Z M 19.675653,56.34232 C 18.315731,54.982397 19.054143,46.776188 21.076666,40.772419 25.331184,28.143078 33.939973,18.588502 46.5,12.556004 68.4577,2.0098645 94.981428,6.5352505 110.89049,23.542084 c 8.25462,8.824224 11.84005,21.012471 11.92645,30.586121 L 122.50002,56.5 71.425673,56.758986 c -28.090891,0.142443 -51.378391,-0.04506 -51.75,-0.416666 z M 117.4411,47.25 C 114.88912,32.516391 99.982034,17.770761 83.888222,14.06054 75.557265,12.139945 62.205752,12.793173 54.544834,15.496178 39.190558,20.913632 27.419592,33.534361 25.395355,46.75 L 24.744384,51 H 71.417505 118.09063 Z M 31.373223,44.53022 c -2.109104,-5.496236 3.957684,-15.866978 12.669496,-21.6576 7.343507,-4.881129 9.55671,-5.489611 10.892014,-2.994572 0.934793,1.746675 0.279225,2.49114 -5.689096,6.460552 -7.56552,5.031677 -10.990213,9.079369 -12.760288,15.081563 -1.255922,4.258738 -4.024908,5.943302 -5.112126,3.110057 z"
     id="path3761"
     inkscape:connector-curvature="0"
     sodipodi:nodetypes="csscscsssccccscscscsssssssssssssssssssssssssssscsscsscsscscccsscsscccsscccccsscscccsscccccccssccsssccsccsssscccsssssss" />
</svg>
