<?xml version="1.0" encoding="UTF-8" standalone="no"?>
<!-- Created with Inkscape (http://www.inkscape.org/) -->

<svg
   xmlns:dc="http://purl.org/dc/elements/1.1/"
   xmlns:cc="http://creativecommons.org/ns#"
   xmlns:rdf="http://www.w3.org/1999/02/22-rdf-syntax-ns#"
   xmlns:svg="http://www.w3.org/2000/svg"
   xmlns="http://www.w3.org/2000/svg"
   xmlns:sodipodi="http://sodipodi.sourceforge.net/DTD/sodipodi-0.dtd"
   xmlns:inkscape="http://www.inkscape.org/namespaces/inkscape"
   version="1.1"
   id="svg30"
   width="399"
   height="63"
   viewBox="0 0 399 63"
   sodipodi:docname="burguer text.svg"
   inkscape:version="0.92.4 (5da689c313, 2019-01-14)">
  <metadata
     id="metadata36">
    <rdf:RDF>
      <cc:Work
         rdf:about="">
        <dc:format>image/svg+xml</dc:format>
        <dc:type
           rdf:resource="http://purl.org/dc/dcmitype/StillImage" />
        <dc:title></dc:title>
      </cc:Work>
    </rdf:RDF>
  </metadata>
  <defs
     id="defs34" />
  <sodipodi:namedview
     pagecolor="#ffffff"
     bordercolor="#666666"
     borderopacity="1"
     objecttolerance="10"
     gridtolerance="10"
     guidetolerance="10"
     inkscape:pageopacity="0"
     inkscape:pageshadow="2"
     inkscape:window-width="1360"
     inkscape:window-height="715"
     id="namedview32"
     showgrid="false"
     inkscape:zoom="2.1354979"
     inkscape:cx="205.60338"
     inkscape:cy="19.117471"
     inkscape:window-x="-8"
     inkscape:window-y="-8"
     inkscape:window-maximized="1"
     inkscape:current-layer="svg30" />
  <path
     style="fill:#000000"
     d="m 2.5951754,54.309647 c 0,-0.93333 0.9444444,-1.5 2.5000001,-1.5 h 2.5 v -18.999998 -19 h -2.5 c -1.5555557,0 -2.5000001,-0.566667 -2.5000001,-1.5 0,-1.277354 2.6515151,-1.5 17.8636356,-1.5 h 17.863637 l 2.656621,2.656621 c 1.461141,1.461142 2.922031,3.714099 3.246421,5.006573 0.813135,3.239788 -0.372847,8.878237 -2.183513,10.380957 -1.294744,1.074542 -1.094034,1.492166 1.465095,3.048465 2.628806,1.598672 5.076949,6.617192 5.076949,10.407382 0,3.93708 -2.448126,8.80924 -5.300213,10.54828 -2.858168,1.74275 -5.131852,1.94463 -21.938633,1.94798 -16.0016605,0.003 -18.7499996,-0.21613 -18.7499996,-1.49626 z m 13.9999996,-11 c 0,-9.466665 -0.0088,-9.499998 -2.5,-9.499998 -2.491228,0 -2.5,0.03333 -2.5,9.499998 0,9.46667 0.0088,9.5 2.5,9.5 2.491228,0 2.5,-0.0333 2.5,-9.5 z m 16.545455,7.04546 c 1.893189,-1.89319 2.454545,-3.50449 2.454545,-7.04546 0,-6.545796 -3.095551,-9.499998 -9.954545,-9.499998 h -5.045455 v 9.499998 9.5 h 5.045455 c 4.023569,0 5.542588,-0.49713 7.5,-2.45454 z m 9,0 c 1.893189,-1.89319 2.454545,-3.50449 2.454545,-7.04546 0,-3.540963 -0.561356,-5.152263 -2.454545,-7.045453 -2.362688,-2.362687 -5.545455,-3.312299 -5.545455,-1.654545 0,0.44 0.546429,1.346429 1.214286,2.014286 0.667857,0.667857 1.214285,3.676432 1.214285,6.685712 0,3.00929 -0.546428,6.01786 -1.214285,6.68572 -0.667857,0.66785 -1.214286,1.57428 -1.214286,2.01428 0,1.65776 3.182767,0.70814 5.545455,-1.65454 z M 16.595175,22.809649 c 0,-7.866667 -0.04167,-8 -2.5,-8 -2.458333,0 -2.5,0.133333 -2.5,8 0,7.866667 0.04167,8 2.5,8 2.458333,0 2.5,-0.133333 2.5,-8 z m 11.315741,6.850296 c 3.036706,-1.598397 3.651337,-2.787855 3.668946,-7.100296 0.01985,-4.859788 -2.771424,-7.75 -7.484687,-7.75 h -3.5 v 8 c 0,7.921329 0.02523,8 2.565741,8 1.411158,0 3.548658,-0.517367 4.75,-1.149704 z m 9,0 c 3.036706,-1.598397 3.651337,-2.787855 3.668946,-7.100296 0.0099,-2.432256 -0.687484,-4.452797 -1.984687,-5.75 -2.55626,-2.55626 -5.527717,-2.723024 -4.454606,-0.25 1.558363,3.591303 1.613757,8.224607 0.133799,11.191255 -1.622379,3.252134 -0.903719,3.772492 2.636548,1.909041 z m 28.582142,23.879772 c -5.939359,-3.96775 -6.894571,-7.28923 -6.896329,-23.980068 l -0.0016,-14.75 h -2.5 c -1.555556,0 -2.5,-0.566667 -2.5,-1.5 0,-1.246377 1.944444,-1.5 11.5,-1.5 9.318741,0 11.5,0.271913 11.5,1.433578 0,0.820527 -1.176,1.568891 -2.75,1.75 l -2.75,0.316422 -0.311436,10 c -0.435103,13.970882 0.434791,19.898928 3.444963,23.476318 3.150954,3.7447 8.010731,4.77612 12.228064,2.59526 5.29599,-2.73867 6.138409,-5.75178 6.138409,-21.955496 V 14.942494 l -2.75,-0.316423 c -5.489908,-0.631683 -2.573084,-2.323592 4.5,-2.610232 5.996091,-0.242994 7.250001,-0.0268 7.250001,1.25 0,0.964734 -0.90407,1.54381 -2.41025,1.54381 h -2.41025 l -0.3532,15.25 c -0.39614,17.103758 -1.27763,20.011718 -7.170091,23.653458 -5.072247,3.13482 -18.957931,3.03348 -23.758327,-0.17339 z m 4.882054,-3.80997 c -2.110304,-2.85074 -2.303657,-4.26439 -2.598749,-18.999996 L 67.457551,14.809649 H 65.026363 62.595175 V 30.17479 c 0,14.181797 0.164667,15.574477 2.138117,18.083317 1.902623,2.41879 4.906427,4.30648 7.14182,4.48816 0.428966,0.0349 -0.246034,-1.32257 -1.5,-3.01652 z m 36.220068,4.5799 c 0,-1 1,-1.5 3,-1.5 h 3 v -6.5 -6.499998 h -3.08333 c -3.82597,0 -3.48268,-2.355544 0.41045,-2.816422 l 2.67288,-0.316423 V 25.743227 14.809649 h -2.5 c -2.019,0 -2.5,0.495112 -2.5,2.573324 0,1.914762 -0.44786,2.48556 -1.75,2.230386 -1.26577,-0.248046 -1.75,-1.305981 -1.75,-3.823324 v -3.480386 l 18.20915,-0.272401 18.20916,-0.272401 3.29084,2.940372 c 3.20037,2.859528 3.29085,3.159697 3.29085,10.917413 0,6.46203 -0.36453,8.379845 -1.91938,10.097933 -1.87708,2.07415 -1.87792,2.15121 -0.038,3.496607 1.27947,0.935575 2.05353,3.090065 2.41938,6.734095 0.43308,4.3136 0.97669,5.55085 2.78798,6.34551 4.5718,2.00575 2.56457,3.51287 -4.67855,3.51287 -8.35175,0 -9.54786,-0.9315 -10.39645,-8.09644 -0.342,-2.88773 -0.97129,-5.57605 -1.3984,-5.97406 -0.42712,-0.39801 -2.68908,-1.03453 -5.02658,-1.41448 l -4.25,-0.690814 v 6.521474 c 0,6.32314 0.0813,6.5311 2.67288,6.8379 1.47009,0.17403 2.85759,0.87892 3.08333,1.56642 0.31316,0.95368 -2.45397,1.25 -11.67288,1.25 -10.07407,0 -12.08333,-0.24942 -12.08333,-1.5 z m 15,-8 v -6.499998 h -3 -3 v 6.499998 6.5 h 3 3 z m 22.99695,1.47623 c -0.72244,-5.6314 -1.29992,-6.43554 -5.29937,-7.37933 -2.5511,-0.602008 -2.70804,-0.484961 -1.75,1.30515 0.57883,1.08156 1.05242,3.30925 1.05242,4.95042 0,4.64493 0.96003,6.14753 3.92771,6.14753 2.67705,0 2.70502,-0.0679 2.06924,-5.02377 z M 121.59518,25.809649 v -11 h -3 -3 v 11 11 h 3 3 z m 9.34268,9.889728 c 3.03906,-1.384691 4.65732,-4.82103 4.65732,-9.889728 0,-6.902802 -3.36978,-11 -9.04705,-11 -1.81891,0 -1.95295,0.755009 -1.95295,11 0,10.244991 0.13404,11 1.95295,11 1.07412,0 3.0495,-0.499622 4.38973,-1.110272 z m 9.04268,-0.01945 c 5.49054,-2.501656 6.22086,-14.231755 1.15725,-18.587284 -1.45977,-1.255646 -3.32956,-2.282994 -4.15508,-2.282994 -1.31786,0 -1.31106,0.271095 0.0558,2.222506 1.02454,1.462791 1.55667,4.463185 1.55667,8.777494 0,4.314309 -0.53213,7.314703 -1.5567,8.777494 -1.72357,2.460732 -0.80725,2.801086 2.94206,1.092786 z m 34.90069,19.42871 c -1.21767,-0.23575 -4.46643,-2.45381 -7.21945,-4.92902 -8.82774,-7.9369 -10.36398,-19.048941 -3.9684,-28.704507 5.97955,-9.027472 18.45173,-12.2530396 28.23232,-7.301472 l 4.66948,2.36399 v -2.36399 c 0,-1.434657 0.58968,-2.363989 1.5,-2.363989 1.2,0 1.5,1.5 1.5,7.5 0,6 -0.3,7.5 -1.5,7.5 -0.99842,0 -1.5,-0.998424 -1.5,-2.985812 0,-2.344421 -0.80555,-3.516485 -3.75,-5.456214 -6.81097,-4.486893 -14.36513,-4.337489 -17.9682,0.355369 -0.83042,1.081593 -1.22832,6.402414 -1.25,16.715337 l -0.0318,15.128678 3.02649,1.25361 c 4.14478,1.71683 11.50655,0.56382 16.19031,-2.53574 4.70018,-3.11043 4.9008,-5.24075 0.5332,-5.66187 -6.03277,-0.58167 -2.82173,-2.31115 4.84062,-2.60719 5.87118,-0.22683 7.50835,0.001 7.1802,1 -0.23378,0.71161 -1.62785,1.43622 -3.09794,1.61025 -2.56131,0.30322 -2.67288,0.5641 -2.67288,6.25 0,4.60763 -0.3352,5.93358 -1.5,5.93358 -0.91032,0 -1.5,-0.92933 -1.5,-2.36399 v -2.36399 l -4.66948,2.36399 c -4.49291,2.2746 -10.73822,2.88394 -17.04447,1.66298 z m -4.96547,-36.164455 c -0.12,-0.201006 -1.59122,1.799596 -3.26938,4.445781 -4.15101,6.545458 -4.25746,13.731548 -0.3012,20.331824 l 2.75,4.58786 0.51938,-14.499998 c 0.28566,-7.975 0.4212,-14.664459 0.3012,-14.865465 z m 50.93565,35.220805 c -6.32483,-3.11801 -7.25623,-6.16313 -7.25623,-23.723372 V 14.809649 h -3 c -2,0 -3,-0.5 -3,-1.5 0,-1.25 2,-1.5 12,-1.5 10,0 12,0.25 12,1.5 0,1 -1,1.5 -3,1.5 h -3 l 0.004,14.75 c 0.004,17.295858 1.05224,20.287668 7.81527,22.313918 4.69057,1.40533 8.31653,0.0341 11.59106,-4.3833 1.85934,-2.50831 2.12546,-4.46672 2.41198,-17.750001 l 0.32178,-14.930617 h -3.07204 c -2.10279,0 -3.07205,-0.487087 -3.07205,-1.54381 0,-1.276803 1.25391,-1.492994 7.25,-1.25 7.07308,0.28664 9.98991,1.978549 4.5,2.610232 l -2.75,0.316423 -0.004,15.183577 c -0.004,16.997086 -0.8609,19.801356 -7.23712,23.688976 -4.21807,2.57179 -17.57462,2.7795 -22.50291,0.34995 z m 3.46004,-5.10534 c -1.98449,-3.35782 -2.24257,-5.31872 -2.46773,-18.749998 l -0.25146,-15 -2.49854,-0.316422 -2.49854,-0.316423 v 14.616083 c 0,16.08504 0.83864,19.27968 5.76257,21.95137 4.10391,2.22676 4.37903,1.91912 1.9537,-2.18461 z m 34.97758,6.11052 c -1.13344,-1.13344 0.35596,-2.36052 2.86517,-2.36052 h 2.44098 V 33.876071 14.942494 l -2.75,-0.316423 c -1.5125,-0.174032 -2.75,-0.766422 -2.75,-1.316422 0,-0.623879 7.4504,-1.102055 19.80854,-1.271336 l 19.80854,-0.271335 -0.30854,4.038984 c -0.35454,4.64112 -2.15437,5.843554 -2.62496,1.753687 l -0.31642,-2.75 h -8.8712 -8.87119 l -0.31239,11.002038 -0.31238,11.002038 4.18358,-0.002 c 3.72552,-0.0018 4.21822,-0.279161 4.5,-2.533127 0.17403,-1.392099 0.76642,-2.517099 1.31642,-2.5 1.51924,0.04723 1.27935,13.271309 -0.25,13.781089 -0.81982,0.27323 -1.25,-0.64448 -1.25,-2.66671 0,-2.91888 -0.2086,-3.083328 -3.91118,-3.083328 h -3.91118 l -0.33882,6.086548 c -0.18635,3.3476 -0.15132,6.2726 0.0779,6.5 0.22911,0.2274 4.36172,0.41345 9.18352,0.41345 h 8.76692 l 0.31642,-2.75 c 0.49073,-4.26487 2.28086,-3.24152 2.62392,1.5 l 0.3075,4.25 h -19.39084 c -10.66495,0 -19.67859,-0.28776 -20.03031,-0.63948 z m 14.30615,-8.86052 v -6.499998 h -3 c -2.99048,0 -3,0.01852 -3,5.833328 0,6.51653 0.33263,7.16667 3.66667,7.16667 2.20512,0 2.33333,-0.35714 2.33333,-6.5 z m 0,-20.56642 V 14.676804 l -2.75,0.316423 -2.75,0.316422 -0.28984,9.424983 c -0.15941,5.183741 -0.061,10.021241 0.21861,10.75 0.27965,0.72876 1.64758,1.325017 3.03985,1.325017 h 2.53138 z m 32.69385,29.42694 c -1.13344,-1.13344 0.35596,-2.36052 2.86517,-2.36052 2.33762,0 2.44098,-0.27524 2.44098,-6.5 0,-6.266665 -0.0897,-6.499998 -2.5,-6.499998 -1.55556,0 -2.5,-0.566667 -2.5,-1.5 0,-0.933333 0.94444,-1.5 2.5,-1.5 h 2.5 v -11 c 0,-10.986604 -0.003,-11 -2.43358,-11 -1.91143,0 -2.50147,0.590031 -2.75,2.75 -0.46953,4.080687 -2.26998,2.892001 -2.62392,-1.732352 l -0.3075,-4.017648 17.3075,0.01365 c 9.51913,0.0075 18.2075,0.274672 19.3075,0.593693 1.1,0.319021 3.125,1.98239 4.5,3.696376 2.09798,2.615202 2.5,4.175099 2.5,9.700286 0,4.693925 -0.52489,7.385028 -1.82846,9.374531 -1.73261,2.644293 -1.73807,2.890464 -0.10418,4.69589 0.94924,1.048897 1.94394,4.191407 2.21298,6.991337 0.40704,4.23609 0.89406,5.24014 2.91436,6.00825 4.1244,1.5681 1.51105,2.92598 -5.63127,2.92598 -8.06753,0 -9.15378,-0.88487 -9.83888,-8.01486 -0.54484,-5.67025 -1.29397,-6.53883 -6.47455,-7.50694 l -3.75,-0.70078 v 6.61129 c 0,6.38538 0.0854,6.61129 2.5,6.61129 1.55556,0 2.5,0.56667 2.5,1.5 0,1.2451 -1.92593,1.5 -11.33333,1.5 -6.23334,0 -11.6211,-0.28776 -11.97282,-0.63948 z m 14.30615,-8.86052 c 0,-6.266665 -0.0897,-6.499998 -2.5,-6.499998 -2.41026,0 -2.5,0.233333 -2.5,6.499998 0,6.26667 0.0897,6.5 2.5,6.5 2.41026,0 2.5,-0.23333 2.5,-6.5 z m 23.34272,1.75 c -0.7308,-5.60777 -1.55171,-6.86563 -4.89814,-7.50534 -1.94434,-0.37169 -2.39037,-0.12048 -2.02278,1.13926 0.25936,0.88884 0.77966,3.41608 1.15622,5.61608 0.89218,5.21244 1.09933,5.5 3.96187,5.5 2.30944,0 2.39312,-0.22047 1.80283,-4.75 z M 320.59518,25.809649 v -11 h -2.5 -2.5 v 11 11 h 2.5 2.5 z m 11.36514,8.92742 c 2.36164,-1.857667 2.63486,-2.743776 2.63486,-8.545455 0,-5.539101 -0.35409,-6.826965 -2.45455,-8.92742 -1.35,-1.35 -3.6,-2.454545 -5,-2.454545 h -2.54545 v 11 c 0,10.89941 0.0216,11 2.36514,11 1.30083,0 3.55083,-0.932661 5,-2.07258 z m 9.18031,-0.381965 c 2.06875,-2.068748 2.45455,-3.411897 2.45455,-8.545455 0,-5.133558 -0.3858,-6.476707 -2.45455,-8.545455 -1.35,-1.35 -3.12703,-2.454545 -3.94897,-2.454545 -1.31716,0 -1.32256,0.411344 -0.0454,3.467881 1.88528,4.512127 1.84912,11.857629 -0.0767,15.581779 -1.37689,2.662606 -1.37245,2.95034 0.0455,2.95034 0.86413,0 2.67568,-1.104545 4.02568,-2.454545 z m 18.16499,19.455283 c -0.64414,-2.46321 -0.21563,-11.82889 0.57751,-12.62202 1.02674,-1.02674 2.71205,0.6797 2.71205,2.74604 0,3.41617 1.77798,5.56925 5.99106,7.25499 7.90799,3.16415 18.00894,1.04848 18.00894,-3.77202 0,-3.24858 -2.83529,-5.16403 -11.45272,-7.737129 -4.76673,-1.423313 -7.9894,-3.112722 -10.25,-5.373316 -2.93373,-2.933738 -3.29728,-3.906257 -3.29728,-8.820558 0,-4.543309 0.47963,-6.093287 2.70331,-8.735974 4.71721,-5.606085 13.74524,-7.5875136 20.79669,-4.564358 2.57034,1.101978 3.16732,1.059938 4.16824,-0.293532 0.64253,-0.868844 1.47172,-1.276236 1.84264,-0.905315 0.95428,0.954276 1.50069,7.891174 0.83278,10.572454 -0.72876,2.925578 -3.33906,2.925578 -3.35897,0 -0.008,-1.2375 -0.34592,-2.745133 -0.75,-3.350296 -2.68233,-4.017154 -13.52827,-5.06302 -17.9903,-1.73479 -5.96273,4.447603 -3.32034,7.64966 9.64882,11.692485 9.90357,3.087202 13.69928,5.953471 14.65906,11.069555 0.95741,5.103404 -0.7547,9.611694 -4.93519,12.995244 -3.37817,2.73418 -4.63468,3.10555 -11.45571,3.38578 -6.08723,0.25008 -8.43186,-0.0866 -11.41137,-1.63882 -3.65717,-1.9052 -3.75,-1.90672 -3.75,-0.0614 0,2.51773 -2.6255,2.43228 -3.28956,-0.10706 z M 388.4647,36.17076 c -1.37435,-1.462934 -5.45997,-3.391976 -10.33041,-4.877553 -4.4313,-1.351627 -9.0654,-3.163883 -10.29801,-4.027235 -2.14129,-1.499822 -2.2411,-1.459099 -2.2411,0.914393 0,3.447091 3.908,6.219383 12.28336,8.713671 4.28997,1.277609 8.03312,3.12728 9.6196,4.753511 l 2.59704,2.6621 0.32152,-2.85942 c 0.21575,-1.918735 -0.42642,-3.655558 -1.952,-5.279467 z"
     id="path40"
     inkscape:connector-curvature="0" />
</svg>
